# xmcd
#
# Track frame offsets: 
#        150
#        13374
#        30820
#        47784
#        61591
#        75992
#        88941
#        104795
#        120517
#        135683
#        150185
#        163446
#        179520
#        191552
#        205218
#        220435
#        236391
#        249670
#        268187
#        279471
#
# Disc length: 3942 seconds
#
# Revision: 5
# Processed by: cddbd v1.5.1PL2 Copyright (c) Steve Scherf et al.
# Submitted via: ExactAudioCopy v0.95b3
#
DISCID=1b0f6414
DTITLE=Στράτος Διονυσίου - Οι Μεγαλύτερες Επιτυχίες Του
DYEAR=1987
DGENRE=Greek
TTITLE0=Με σκότωσε γιατί την αγαπούσα
TTITLE1=Ο Σαλονικιός
TTITLE2=Τα πήρες όλα
TTITLE3=Και λέγε λέγε
TTITLE4=Υποκρίνεσαι
TTITLE5=Ο Ταξιτζής
TTITLE6=Της γυναίκας η καρδιά
TTITLE7=Μόνο οι ερωτευμένοι
TTITLE8=Μια καρδιά αλήτη
TTITLE9=Ποιός είπε για τους μάγκες
TTITLE10=Τα μάζεψα τα πράγματα
TTITLE11=Φεύγοντας
TTITLE12=Δεν τελειώνει
TTITLE13=Συλλογίσου
TTITLE14=Αλήτισσα
TTITLE15=Γύρισε κοντά μου
TTITLE16=Ζητώ ακρόαση Θεού
TTITLE17=Έφυγε
TTITLE18=Και πάλι μάγκας θάσαι
TTITLE19=Ο λαός τραγούδι θέλει
EXTD=YEAR: 1987
EXTT0=
EXTT1=
EXTT2=
EXTT3=
EXTT4=
EXTT5=
EXTT6=
EXTT7=
EXTT8=
EXTT9=
EXTT10=
EXTT11=
EXTT12=
EXTT13=
EXTT14=
EXTT15=
EXTT16=
EXTT17=
EXTT18=
EXTT19=
PLAYORDER=
